<?xml version="1.0" encoding="UTF-8"?>
<svg xmlns="http://www.w3.org/2000/svg" version="1.1" width="1024" height="1024" style="background-color:transparent;">
  <path d="M0 0 C337.92 0 675.84 0 1024 0 C1024 337.92 1024 675.84 1024 1024 C686.08 1024 348.16 1024 0 1024 C0 686.08 0 348.16 0 0 Z " fill="#FCFCFC" transform="translate(0,0)"/>
  <path d="M0 0 C1.22219238 0.16628906 2.44438477 0.33257812 3.70361328 0.50390625 C42.56781671 5.98703358 80.16396623 17.00819446 116 33 C116.82999512 33.36947754 117.65999023 33.73895508 118.51513672 34.11962891 C124.07510601 36.61953838 129.55739065 39.25434856 135 42 C135.83112305 42.41910645 136.66224609 42.83821289 137.51855469 43.27001953 C149.17903581 49.22733786 160.24528354 55.9234649 171.125 63.1875 C171.68227783 63.55914276 172.23955566 63.93078552 172.8137207 64.31369019 C187.44079379 74.10576315 201.42421136 84.68412289 214.38671875 96.6015625 C220.57522735 102.36313014 220.57522735 102.36313014 227.22265625 107.56640625 C228.10244141 108.27603516 228.10244141 108.27603516 229 109 C229 109.66 229 110.32 229 111 C229.5465625 111.20882812 230.093125 111.41765625 230.65625 111.6328125 C233.86301122 113.50342321 236.07423809 116.11875282 238.5 118.875 C242.31698769 123.16539707 242.31698769 123.16539707 246.34375 127.2578125 C248 129 248 129 248 131 C248.66 131 249.32 131 250 131 C251.39599396 132.52837269 252.71587649 134.12650099 254 135.75 C254.80953125 136.76449219 255.6190625 137.77898437 256.453125 138.82421875 C256.87529297 139.35450684 257.29746094 139.88479492 257.73242188 140.43115234 C259.68772175 142.85117488 261.72697823 145.19900234 263.75 147.5625 C317.64728682 212.30599005 349.60359368 298.49351557 350.23828125 382.71875 C350.24802979 383.80310333 350.25777832 384.88745667 350.26782227 386.00466919 C350.44815072 411.29190238 349.87798546 435.99562898 346 461 C345.80744629 462.2689209 345.61489258 463.5378418 345.41650391 464.84521484 C333.99361501 538.3353296 301.62475321 605.9672617 253 662 C252.40058594 662.69996094 251.80117188 663.39992188 251.18359375 664.12109375 C241.18515943 675.70964052 230.77585803 687.17347787 219.140625 697.13671875 C216.66813514 699.28886777 214.27728643 701.51980719 211.875 703.75 C206.10523909 709.00389508 200.06226667 713.82992589 193.86669922 718.5703125 C192.62053341 719.52473926 191.37736536 720.48309267 190.13720703 721.4453125 C174.33469912 733.70383044 157.68403964 744.45537347 140.05371094 753.89306641 C138.14144408 754.92376278 136.24491073 755.97802521 134.3515625 757.04296875 C97.1982499 777.7384207 54.93055844 790.47668345 13.1875 797.6875 C12.03918701 797.89012451 10.89087402 798.09274902 9.70776367 798.30151367 C-9.66053413 801.50351449 -29.11890949 802.31870327 -48.72119141 802.20581055 C-52.02644493 802.18735232 -55.33141852 802.18530344 -58.63671875 802.18554688 C-97.22379609 802.12309222 -135.1231856 796.4892864 -172 785 C-173.19512207 784.62858887 -174.39024414 784.25717773 -175.62158203 783.87451172 C-191.64266223 778.83837116 -207.26054541 773.18997067 -222.52197266 766.14208984 C-224.80180423 765.0913458 -227.09144438 764.06722234 -229.38671875 763.05078125 C-259.96557364 749.32986918 -288.00054679 730.2651353 -313.32421875 708.43310547 C-314.98442519 707.01331937 -316.66167071 705.6164209 -318.34375 704.22265625 C-326.63334097 697.28404771 -334.36117191 689.82723809 -342 682.1875 C-342.49481873 681.69358765 -342.98963745 681.19967529 -343.49945068 680.6907959 C-349.21424954 674.97480968 -354.7935025 669.1870163 -360 663 C-360.76425293 662.09592407 -360.76425293 662.09592407 -361.54394531 661.17358398 C-370.21672138 650.82090839 -378.26841895 640.06970066 -386 629 C-386.44972168 628.35708008 -386.89944336 627.71416016 -387.36279297 627.05175781 C-423.01021136 575.73351293 -446.82062514 514.11809689 -454 452 C-454.13535156 450.8646582 -454.27070313 449.72931641 -454.41015625 448.55957031 C-460.42972587 396.21371831 -458.46885949 341.86514677 -444 291 C-443.59273682 289.55439697 -443.59273682 289.55439697 -443.17724609 288.07958984 C-430.56361932 243.87269358 -410.82981382 202.35130943 -384 165 C-383.59475098 164.4342627 -383.18950195 163.86852539 -382.77197266 163.28564453 C-376.23633243 154.22519223 -369.12798556 145.59650207 -362 137 C-361.50048828 136.39317383 -361.00097656 135.78634766 -360.48632812 135.16113281 C-353.52485973 126.74358039 -346.07257097 118.87353476 -338.375 111.125 C-337.51648438 110.25721924 -336.65796875 109.38943848 -335.7734375 108.49536133 C-330.58726913 103.33439252 -325.21627778 98.57932111 -319.48706055 94.02783203 C-317.0342296 92.0279092 -314.73227075 89.92816385 -312.4375 87.75 C-296.62926694 73.37203565 -277.51310868 61.60193691 -259 51 C-258.15888672 50.51660156 -257.31777344 50.03320312 -256.45117188 49.53515625 C-232.75232273 36.0266438 -207.82119391 25.70764803 -182 17 C-181.10700195 16.69255859 -180.21400391 16.38511719 -179.29394531 16.06835938 C-153.96278874 7.43337915 -126.60513445 1.83837803 -100 -1 C-99.15115234 -1.10006348 -98.30230469 -1.20012695 -97.42773438 -1.30322266 C-65.34636868 -4.99641831 -31.96158437 -4.38764623 0 0 Z " fill="#8DC0ED" transform="translate(566,110)"/>
  <path d="M0 0 C1.25234231 -0.00013973 1.25234231 -0.00013973 2.52998447 -0.00028229 C18.29272884 0.00270591 34.04727942 0.22787858 49.80688477 0.54492188 C52.36612288 0.59345213 54.92536773 0.64162881 57.48461914 0.68945312 C63.57129028 0.80392446 69.65786783 0.92253731 75.74438477 1.04492188 C76.01556625 1.5619014 76.28674774 2.07888092 76.56614685 2.61152649 C81.58918971 12.18315054 86.61326661 21.75187589 91.80688477 31.23242188 C92.30583252 32.14604492 92.80478027 33.05966797 93.31884766 34.00097656 C96.75392562 40.27692715 100.25377028 46.51397091 103.78344727 52.73706055 C106.61577155 57.75505671 109.25809081 62.84744305 111.74438477 68.04492188 C114.89898473 64.32950414 117.31193549 60.43987281 119.61938477 56.16992188 C125.64322827 45.25081777 132.20692398 34.66139256 138.74438477 24.04492188 C139.24212402 23.23297363 139.73986328 22.42102539 140.25268555 21.58447266 C141.57864501 19.42257219 142.91016928 17.26423442 144.24438477 15.10742188 C144.61684326 14.50027344 144.98930176 13.893125 145.37304688 13.26757812 C146.0713476 12.1465435 146.78299157 11.03364561 147.51124001 9.93183041 C148.35751378 8.63689631 149.17173144 7.32061324 149.95781517 5.9882822 C153.50543413 0.49120438 153.50543413 0.49120438 156.7632637 -0.68229866 C159.17587173 -0.94642136 161.47328001 -0.95751304 163.89916992 -0.87915039 C165.2514695 -0.88331215 165.2514695 -0.88331215 166.63108826 -0.88755798 C169.60009184 -0.8870844 172.56506315 -0.82980712 175.53344727 -0.77148438 C177.60035493 -0.75909264 179.66728556 -0.7501037 181.73422241 -0.74436951 C187.16841531 -0.71953334 192.60091454 -0.64580978 198.03448486 -0.56268311 C202.47280183 -0.50265426 206.91101454 -0.47618849 211.34964943 -0.45170689 C220.51618056 -0.4010487 229.68265612 -0.32820416 238.84838867 -0.19555664 C239.69419998 -0.18658356 240.54001129 -0.17761047 241.41145325 -0.16836548 C245.01236165 -0.10859579 248.2773552 0.07689077 251.74438477 1.04492188 C250.37870231 4.75558103 248.68352144 7.90397728 246.55688477 11.23242188 C242.40523626 17.84163267 238.50767906 24.59074763 234.61938477 31.35742188 C229.68839416 39.93617951 224.73917056 48.50313487 219.74438477 57.04492188 C212.939759 68.68849979 206.20146886 80.3698495 199.46801758 92.0546875 C193.59706104 102.23988235 187.71471271 112.41758993 181.74438477 122.54492188 C178.05535892 128.80283904 174.38975058 135.07396238 170.74438477 141.35742188 C170.27516602 142.164375 169.80594727 142.97132813 169.32250977 143.80273438 C168.88422852 144.55941406 168.44594727 145.31609375 167.99438477 146.09570312 C167.60766602 146.76255127 167.22094727 147.42939941 166.82250977 148.11645508 C166.28883789 149.07104614 166.28883789 149.07104614 165.74438477 150.04492188 C165.34735352 150.70387451 164.95032227 151.36282715 164.54125977 152.04174805 C163.54413434 154.54830876 163.80446885 155.54703801 164.74438477 158.04492188 C165.37151446 159.37360088 166.04627464 160.68039783 166.75610352 161.96679688 C167.17657959 162.73185547 167.59705566 163.49691406 168.03027344 164.28515625 C168.49280518 165.11337891 168.95533691 165.94160156 169.43188477 166.79492188 C169.91955322 167.67470703 170.40722168 168.55449219 170.90966797 169.4609375 C175.23491548 177.22096039 179.70530567 184.89409774 184.19824219 192.55786133 C188.75925195 200.34021896 193.26950624 208.15034222 197.74438477 215.98242188 C198.24885635 216.86497147 198.24885635 216.86497147 198.76351929 217.76535034 C203.4771892 226.01656732 208.12520039 234.30291449 212.74438477 242.60742188 C218.01233243 252.07340701 223.47513092 261.41214765 229.02737427 270.71279907 C233.60456687 278.38182123 238.06889305 286.09276543 242.34838867 293.93164062 C245.40935685 299.51859934 248.66193576 304.97414659 252.0546875 310.36621094 C254.74438477 314.72311641 254.74438477 314.72311641 254.74438477 318.04492188 C222.07438477 318.04492188 189.40438477 318.04492188 155.74438477 318.04492188 C152.77438477 312.76492188 149.80438477 307.48492188 146.74438477 302.04492188 C144.27273547 297.72777443 141.79651512 293.41412525 139.30688477 289.10742188 C138.66146729 287.98988525 138.0160498 286.87234863 137.35107422 285.72094727 C132.59144403 277.48876305 127.79276849 269.28070144 122.95336914 261.09521484 C121.61307933 258.82224356 120.27983225 256.54522818 118.94750977 254.26757812 C118.48513916 253.47810791 118.02276855 252.6886377 117.54638672 251.87524414 C116.65578163 250.35425191 115.76624647 248.83263255 114.87792969 247.31030273 C113.07035404 243.98754347 113.07035404 243.98754347 110.74438477 241.04492188 C110.13916992 242.34236328 110.13916992 242.34236328 109.52172852 243.66601562 C103.68820234 255.87078133 96.69144244 267.32077515 89.66821289 278.86865234 C86.67967845 283.80276821 83.74091776 288.76577046 80.80688477 293.73242188 C80.27095703 294.63323486 79.7350293 295.53404785 79.18286133 296.4621582 C76.82949047 300.43209346 74.52254973 304.40773002 72.36938477 308.49023438 C72.01481201 309.15192627 71.66023926 309.81361816 71.29492188 310.49536133 C70.3866821 312.20703535 69.50372513 313.932062 68.62329102 315.65820312 C66.74438477 318.04492188 66.74438477 318.04492188 64.06355095 318.68657589 C60.5993044 319.06058514 57.24336973 319.16782826 53.75881958 319.16517639 C53.07990689 319.16603082 52.4009942 319.16688524 51.7015084 319.16776556 C49.43989427 319.169405 47.17835528 319.16392428 44.91674805 319.15844727 C43.29026796 319.15816504 41.66378775 319.15832383 40.03730774 319.15888977 C35.63076758 319.15917635 31.22425471 319.15330212 26.81772089 319.14631581 C22.20928238 319.14005909 17.60084323 319.13947664 12.99240112 319.13829041 C4.26964217 319.13518393 -4.45310423 319.12697975 -13.17585766 319.11694092 C-23.10809148 319.10575856 -33.04032591 319.10026398 -42.97256446 319.09524548 C-63.40025505 319.08479657 -83.82793435 319.06721036 -104.25561523 319.04492188 C-106.17779869 315.79888968 -106.50470155 313.39916395 -106.50171089 309.64887619 C-106.50569299 308.54712579 -106.50967509 307.44537538 -106.51377785 306.3102386 C-106.50503933 304.495079 -106.50503933 304.495079 -106.49612427 302.64324951 C-106.49783312 301.35759637 -106.49954197 300.07194323 -106.5013026 298.7473309 C-106.50578045 295.17622916 -106.49776648 291.6052471 -106.48774648 288.03416061 C-106.47912056 284.18416088 -106.48203153 280.33416805 -106.48355103 276.48416138 C-106.48460042 269.81291857 -106.47831812 263.14171485 -106.46707535 256.47048187 C-106.4508307 246.8249694 -106.4456134 237.17947586 -106.44309936 227.53395119 C-106.43872063 211.88525362 -106.4254067 196.23657688 -106.40649414 180.58789062 C-106.38813995 165.38541773 -106.37398119 150.18295049 -106.36547852 134.98046875 C-106.36495307 134.04360303 -106.36442762 133.10673732 -106.36388625 132.14148173 C-106.3612762 127.44156593 -106.35874878 122.74165009 -106.35626245 118.04173422 C-106.3355244 79.04278218 -106.30029403 40.0438534 -106.25561523 1.04492188 C-96.01151328 0.91141817 -85.76737727 0.7809148 -75.52319431 0.65377045 C-70.76121265 0.59458348 -65.99924582 0.53453683 -61.23730469 0.47216797 C-40.82471902 0.20550642 -20.41453595 -0.00218363 0 0 Z " fill="#FD961B" transform="translate(605.255615234375,356.955078125)"/>
  <path d="M0 0 C31.47056302 -2.6259354 31.47056302 -2.6259354 40.2000885 2.69874573 C45.19506056 8.0488057 47.46788615 14.48366714 49.73085022 21.34327698 C51.75111025 26.87901323 54.87142831 31.67366866 57.96522522 36.6631012 C59.13391802 38.64974846 60.29535846 40.64067946 61.44960022 42.63575745 C62.31488342 44.12873352 62.31488342 44.12873352 63.19764709 45.65187073 C68.54818198 54.95618485 73.75248472 64.34364967 78.96522522 73.7256012 C79.82322241 75.26731001 80.68128865 76.8089804 81.53944397 78.3506012 C83.12370913 81.19832512 84.70541222 84.04745342 86.28553772 86.8974762 C88.33781382 90.59819852 90.39677898 94.29515127 92.45741272 97.9912262 C98.64622536 109.09937199 104.80137402 120.22259797 110.84022522 131.4131012 C114.62796598 138.43197752 118.44423052 145.4292066 122.37733459 152.36769104 C124.7628215 156.57869642 127.12118074 160.80385914 129.46522522 165.0381012 C130.42162903 166.76516296 130.42162903 166.76516296 131.39735413 168.52711487 C132.64107792 170.77365822 133.88262521 173.02135902 135.12294006 175.26979065 C140.60284222 185.16640788 146.27467083 194.94899701 151.96522522 204.7256012 C151.95269714 203.78112625 151.94016907 202.83665131 151.92726135 201.86355591 C151.28746548 153.28247529 150.85656167 104.70467354 150.84184265 56.11904526 C150.84022265 52.59500096 150.8366622 49.0709631 150.83265686 45.54692078 C150.82683759 39.9923637 150.82655186 34.43783419 150.83090591 28.88327599 C150.83190159 26.83287254 150.83131759 24.78246765 150.82906723 22.7320652 C150.8265309 19.93024 150.83029566 17.12849466 150.83583069 14.32667542 C150.83380394 13.50670358 150.83177719 12.68673174 150.82968903 11.84191227 C150.8429713 8.29850697 151.01219248 5.13502711 151.96522522 1.7256012 C159.31588507 1.70028636 166.66653372 1.68274918 174.01722717 1.67066956 C176.51885905 1.66563478 179.02048798 1.65880659 181.52210999 1.65016174 C185.11383288 1.63805881 188.70551693 1.63236438 192.29725647 1.62794495 C193.41920914 1.62278366 194.5411618 1.61762238 195.69711304 1.61230469 C197.2583918 1.61219139 197.2583918 1.61219139 198.85121155 1.61207581 C200.22688042 1.60874489 200.22688042 1.60874489 201.63034058 1.60534668 C203.96522522 1.7256012 203.96522522 1.7256012 206.96522522 2.7256012 C206.96522522 96.4456012 206.96522522 190.1656012 206.96522522 286.7256012 C184.19522522 286.7256012 161.42522522 286.7256012 137.96522522 286.7256012 C130.09960891 275.48900647 130.09960891 275.48900647 127.16053772 270.3896637 C126.50376038 269.25786682 125.84698303 268.12606995 125.17030334 266.9599762 C124.832005 266.37280823 124.49370667 265.78564026 124.14515686 265.18067932 C122.29631213 261.97333378 120.43172456 258.77517148 118.56678772 255.5771637 C118.18456055 254.92137329 117.80233337 254.26558289 117.40852356 253.58992004 C113.51018186 246.91777015 109.49544141 240.31862813 105.46522522 233.7256012 C99.595314 224.11559812 93.83109204 214.45003117 88.15272522 204.7256012 C87.61569977 203.80599609 87.61569977 203.80599609 87.06782532 202.86781311 C86.71315186 202.26046326 86.35847839 201.6531134 85.99305725 201.02735901 C80.5693293 191.74101415 75.06779637 182.50429274 69.51356506 173.29542542 C65.91549379 167.32360293 62.33377465 161.34193386 58.74867249 155.36231995 C55.53843239 150.00932945 52.32344598 144.65931179 49.09803772 139.31544495 C41.20258542 126.22059741 33.47731163 113.04431588 25.96522522 99.7256012 C25.63522522 99.7256012 25.30522522 99.7256012 24.96522522 99.7256012 C24.96744583 100.72622086 24.96966644 101.72684052 24.97195435 102.75778198 C24.9999923 115.85121188 25.01725075 128.94464578 25.02772522 142.0381012 C25.02858124 143.10041962 25.02943726 144.16273804 25.03031921 145.25724792 C25.0544499 179.24966314 24.86947794 213.23559515 24.46522522 247.2256012 C24.4532674 248.23158482 24.44130959 249.23756844 24.42898941 250.27403641 C24.28372333 262.42469334 24.12600651 274.57512912 23.96522522 286.7256012 C6.14522522 286.7256012 -11.67477478 286.7256012 -30.03477478 286.7256012 C-30.03477478 192.6756012 -30.03477478 98.6256012 -30.03477478 1.7256012 C-14.97760711 1.05956153 -14.97760711 1.05956153 0 0 Z " fill="#002F4A" transform="translate(242.03477478027344,372.27439880371094)"/>
  <path d="M0 0 C5.88950225 -0.34283042 11.7739434 -0.58472148 17.67144775 -0.73779297 C19.73278574 -0.80529724 21.79337026 -0.90139402 23.85211182 -1.02490234 C40.45072752 -1.99473856 40.45072752 -1.99473856 45.0456543 1.47607422 C48.07215882 4.93655688 49.83480523 8.901792 51.49789429 13.15136719 C52.696369 16.13462405 54.25252994 18.90377012 55.78985596 21.72412109 C56.88217449 23.86803431 57.97065337 26.01390771 59.05548096 28.16162109 C63.54247358 36.9348789 68.16262905 45.60659442 73.05548096 54.16162109 C77.16960378 61.36367965 81.22289044 68.58828845 85.11798096 75.91162109 C85.75848389 77.10078125 85.75848389 77.10078125 86.41192627 78.31396484 C86.98765381 79.40644531 86.98765381 79.40644531 87.57501221 80.52099609 C87.91121582 81.15489258 88.24741943 81.78878906 88.59381104 82.44189453 C89.30548096 84.16162109 89.30548096 84.16162109 89.30548096 87.16162109 C89.96548096 87.16162109 90.62548096 87.16162109 91.30548096 87.16162109 C91.51559814 86.38947266 91.72571533 85.61732422 91.94219971 84.82177734 C93.82252501 79.77345411 96.44456101 75.26621193 99.11798096 70.59912109 C99.69475586 69.58551514 100.27153076 68.57190918 100.86578369 67.52758789 C105.75574967 58.99453422 110.89126713 50.62893242 116.11016846 42.29443359 C119.30529148 37.18573719 122.40713581 32.02435092 125.49298096 26.84912109 C129.27092126 20.52222403 133.09047722 14.22507178 136.99298096 7.97412109 C137.41539062 7.29631592 137.83780029 6.61851074 138.27301025 5.92016602 C141.17749705 1.289605 141.17749705 1.289605 142.30548096 0.16162109 C144.14666125 0.06780807 145.99145737 0.04418155 147.83502197 0.0480957 C149.01617081 0.04817123 150.19731964 0.04824677 151.41426086 0.04832458 C152.69965256 0.05348587 153.98504425 0.05864716 155.30938721 0.06396484 C156.61753891 0.06537979 157.92569061 0.06679474 159.27348328 0.06825256 C162.75710955 0.072077 166.24069435 0.08190663 169.7243042 0.09295654 C173.27674804 0.10317227 176.82919855 0.10775053 180.38165283 0.11279297 C187.35627928 0.12352897 194.33087813 0.1406045 201.30548096 0.16162109 C199.79895905 4.03809802 198.04124746 7.4971732 195.91876221 11.07958984 C195.58495544 11.64565445 195.25114868 12.21171906 194.90722656 12.79493713 C194.18845294 14.0131395 193.46813807 15.23043356 192.74642944 16.44689941 C190.81631434 19.70048772 188.89757166 22.96077778 186.97735596 26.22021484 C186.58560684 26.88449493 186.19385773 27.54877502 185.79023743 28.23318481 C181.93975244 34.76804909 178.1487501 41.33620044 174.36798096 47.91162109 C170.34084018 54.91225684 166.2967198 61.90049181 162.18048096 68.84912109 C158.38600374 75.25972017 154.70883072 81.73217784 151.05548096 88.22412109 C146.41520978 96.45999867 141.73815196 104.67316019 136.99298096 112.84912109 C136.11452515 114.36481689 136.11452515 114.36481689 135.21832275 115.91113281 C131.58012399 122.1345989 127.78696482 128.11553076 123.46563721 133.89208984 C121.95932369 136.83878396 122.44345553 138.01017725 123.30548096 141.16162109 C124.35857459 143.45869015 124.35857459 143.45869015 125.71173096 145.71630859 C126.20342773 146.57023193 126.69512451 147.42415527 127.20172119 148.30395508 C127.73096191 149.20573486 128.26020264 150.10751465 128.80548096 151.03662109 C129.35083496 151.97771729 129.89618896 152.91881348 130.45806885 153.88842773 C134.22107762 160.36367409 138.04972615 166.79855035 141.92266846 173.20849609 C155.24327391 195.26968606 168.02061358 217.64667484 180.55548096 240.16162109 C185.72719996 249.44479446 191.07252191 258.60534305 196.58673096 267.68896484 C197.02372314 268.40938965 197.46071533 269.12981445 197.91094971 269.87207031 C198.92906458 271.54361816 199.95336085 273.2114055 200.98126221 274.87695312 C201.53169189 275.77655762 202.08212158 276.67616211 202.64923096 277.60302734 C203.15647705 278.42617432 203.66372314 279.24932129 204.18634033 280.09741211 C205.30548096 282.16162109 205.30548096 282.16162109 205.30548096 284.16162109 C197.60412962 284.393937 189.9031437 284.57130648 182.19908047 284.67974281 C178.6208973 284.73180832 175.04512055 284.80232993 171.46832275 284.91601562 C168.01215838 285.02517185 164.55829769 285.08455728 161.10054207 285.11039352 C159.14842197 285.13770309 157.19722245 285.21570016 155.24650574 285.29458618 C146.53815226 285.30006417 146.53815226 285.30006417 142.9861908 282.0196228 C141.17741675 279.47097643 139.71339024 276.94827698 138.30548096 274.16162109 C137.44758254 272.72712669 136.58316934 271.29647421 135.70782471 269.87255859 C134.88173222 268.42980084 134.06027903 266.98437888 133.24298096 265.53662109 C132.28645597 263.86445639 131.3293993 262.19259575 130.37188721 260.52099609 C129.87318115 259.64765625 129.3744751 258.77431641 128.86065674 257.87451172 C126.15997756 253.16337403 123.41889817 248.47588859 120.68048096 243.78662109 C120.10620361 242.80072998 119.53192627 241.81483887 118.94024658 240.79907227 C115.96446298 235.69466435 112.97614301 230.59813878 109.96221924 225.51617432 C108.42799752 222.92851541 106.89775256 220.33851342 105.36755371 217.74847412 C104.62964836 216.50218503 103.88976322 215.25706557 103.14770508 214.01324463 C91.30548096 194.1608398 91.30548096 194.1608398 91.30548096 189.16162109 C90.64548096 189.16162109 89.98548096 189.16162109 89.30548096 189.16162109 C89.08634033 189.94279297 88.86719971 190.72396484 88.64141846 191.52880859 C86.85604924 196.38375997 84.42870583 200.7653278 81.93048096 205.28662109 C81.39447266 206.26236084 80.85846436 207.23810059 80.30621338 208.2434082 C75.93351417 216.14625434 71.33531847 223.89510894 66.64923096 231.61474609 C62.94815789 237.72423804 59.34386456 243.88943924 55.73925781 250.05612183 C45.20546882 268.07468653 45.20546882 268.07468653 40.99298096 275.16162109 C40.35747314 276.23412109 39.72196533 277.30662109 39.06719971 278.41162109 C38.48583252 279.31912109 37.90446533 280.22662109 37.30548096 281.16162109 C36.8698584 282.03778076 36.43423584 282.91394043 35.9854126 283.81665039 C31.5067938 287.73549284 26.38693076 286.65770118 20.66485596 286.43115234 C19.42753723 286.40188156 18.19021851 286.37261078 16.91540527 286.342453 C13.63316398 286.26026619 10.3525828 286.15615911 7.0713501 286.04138184 C3.72015428 285.92956708 0.3683807 285.84705742 -2.98358154 285.76123047 C-9.55486498 285.58795093 -16.124784 285.3857478 -22.69451904 285.16162109 C-21.40439045 281.02134195 -19.84992935 277.25780378 -17.85858154 273.40771484 C-17.01348022 271.77141113 -17.01348022 271.77141113 -16.15130615 270.10205078 C-15.54681641 268.94608398 -14.94232666 267.79011719 -14.31951904 266.59912109 C-14.00805939 266.00103638 -13.69659973 265.40295166 -13.3757019 264.78674316 C-7.90628776 254.29158373 -2.14032236 243.98727416 3.80352783 233.75390625 C12.73983752 218.33034704 21.28067437 202.70626304 29.66485596 186.97802734 C32.95171014 180.81387694 36.27294729 174.66936441 39.61798096 168.53662109 C40.09718994 167.65353271 40.57639893 166.77044434 41.07012939 165.8605957 C43.42225673 161.54096308 45.81856126 157.25681414 48.30548096 153.01318359 C48.77945313 152.19414551 49.25342529 151.37510742 49.74176025 150.53125 C50.63005584 149.00174903 51.53168477 147.47987848 52.44927979 145.96777344 C54.29341242 142.77663206 55.30633251 140.83094468 55.30157471 137.09130859 C54.1017094 133.56229298 52.45835461 130.47033867 50.55548096 127.28662109 C49.73041846 125.86468694 48.90764506 124.44142298 48.08673096 123.01708984 C47.63942627 122.24284668 47.19212158 121.46860352 46.73126221 120.67089844 C44.09129659 116.02473977 41.58396577 111.30656376 39.05548096 106.59912109 C33.16876918 95.68139926 27.0943292 84.87839841 20.96905518 74.09326172 C12.63444464 59.40555944 4.4538794 44.65068459 -3.46353149 29.73458862 C-7.81556544 21.54213559 -12.32521454 13.51303491 -17.25311279 5.65380859 C-18.69451904 3.16162109 -18.69451904 3.16162109 -18.69451904 1.16162109 C-12.46515576 0.73424392 -6.23267782 0.3738449 0 0 Z " fill="#012F4A" transform="translate(626.6945190429688,373.83837890625)"/>
  <path d="M0 0 C31.02 0 62.04 0 94 0 C101.49528727 13.26089287 108.9120964 26.50513175 116.1796875 39.8828125 C119.41020973 45.78250184 122.81384393 51.57017929 126.25 57.3515625 C135.13996089 72.32517573 143.73432257 87.47762273 152.28515625 102.64672852 C155.94025394 109.13057851 159.61734996 115.60139311 163.3125 122.0625 C163.80838623 122.93003906 164.30427246 123.79757812 164.81518555 124.69140625 C166.99978406 128.51124478 169.18800113 132.32889466 171.38671875 136.140625 C171.92848755 137.08216431 171.92848755 137.08216431 172.48120117 138.04272461 C173.41279112 139.66100774 174.34689145 141.27784507 175.28125 142.89453125 C177.29753429 146.53759036 179.13788926 150.27577853 181 154 C181 103.51 181 53.02 181 1 C211.03 1 241.06 1 272 1 C272 50.43627465 272 50.43627465 271.90820312 74.2175293 C271.89819558 76.94304856 271.88842743 79.66856866 271.87864685 82.39408875 C271.85787368 88.14955017 271.8365506 93.90500932 271.81480408 99.66046715 C271.78336685 107.98090566 271.75283667 116.30134733 271.72249681 124.62178991 C271.67319575 138.13580169 271.62320555 151.64981083 271.57275391 165.16381836 C271.5238764 178.25659043 271.47534091 191.3493637 271.42724609 204.44213867 C271.4242591 205.25525234 271.4212721 206.06836601 271.41819459 206.90611949 C271.4032051 210.98708585 271.38822212 215.06805224 271.37324238 219.14901865 C271.24983826 252.7660162 271.125304 286.38300947 271 320 C258.59690048 320.55822967 246.19682109 320.98351021 233.78368187 321.24349213 C228.01759235 321.36834824 222.26013833 321.53726809 216.49902344 321.81054688 C178.09123823 323.58552892 178.09123823 323.58552892 170.60144043 317.75320435 C165.55100252 312.28619302 163.09431764 306.22554902 161.04075623 299.15769958 C159.28782568 293.83923218 156.3657117 289.21956922 153.5 284.4375 C152.4264129 282.54034305 151.3568505 280.64089771 150.29296875 278.73828125 C145.79376726 270.83186492 141.02074851 263.09384306 136.265625 255.33984375 C129.89276588 244.9444389 123.79636782 234.39165543 117.72167969 223.82006836 C111.81602475 213.55011932 105.86805951 203.30721739 99.8125 193.125 C99.18899658 192.06732422 98.56549316 191.00964844 97.9230957 189.91992188 C97.33616943 188.93830078 96.74924316 187.95667969 96.14453125 186.9453125 C95.63253174 186.08437988 95.12053223 185.22344727 94.59301758 184.33642578 C92.94405324 181.91794475 91.13127068 179.99826461 89 178 C89.33 178.66 89.66 179.32 90 180 C90.09323971 181.97449134 90.11890032 183.95226687 90.11523438 185.92895508 C90.11463013 187.21839523 90.11402588 188.50783539 90.11340332 189.83634949 C90.10709688 191.29324449 90.10053576 192.7501384 90.09375 194.20703125 C90.08993182 195.75291396 90.08631694 197.29879717 90.08288574 198.84468079 C90.01782592 221.25608934 89.76402066 243.66707064 89.53643799 266.07727051 C89.46392601 273.2616648 89.39403852 280.4460851 89.32368469 287.63050079 C89.21774376 298.42035448 89.10857689 309.21017107 89 320 C59.63 320 30.26 320 0 320 C0 214.4 0 108.8 0 0 Z M17 18 C17 112.05 17 206.1 17 303 C34.82 303 52.64 303 71 303 C71.17432232 289.85422931 71.34360465 276.70848493 71.5 263.5625 C71.51187725 262.56470394 71.5237545 261.56690788 71.53599167 260.53887558 C71.93984095 226.29622239 72.08978952 192.05743511 72.0625 157.8125 C72.06164398 156.73048939 72.06078796 155.64847878 72.05990601 154.53367996 C72.04869009 141.35576912 72.02888321 128.17788366 72 115 C73.2806068 117.07071808 74.55996356 119.14219125 75.83862305 121.21411133 C76.19855095 121.79582344 76.55847885 122.37753555 76.92931366 122.97687531 C79.70306826 127.47463361 82.30123945 132.0400981 84.8125 136.6875 C89.51603273 145.26907752 94.57597157 153.60095338 99.72119141 161.92285156 C101.58805313 164.95516533 103.42235037 168.00643714 105.25 171.0625 C105.60392822 171.65426025 105.95785645 172.24602051 106.32250977 172.85571289 C107.10111158 174.15752974 107.87967372 175.45937032 108.65820312 176.76123047 C110.20030239 179.33420177 111.74843598 181.90349537 113.296875 184.47265625 C120.12663054 195.81451843 126.88632538 207.19236702 133.5625 218.625 C139.7732296 229.25862259 146.10322428 239.81247601 152.53125 250.31640625 C156.26393793 256.4193084 159.94752951 262.5512094 163.625 268.6875 C164.55662964 270.24078003 164.55662964 270.24078003 165.50708008 271.82543945 C168.5270688 276.8632557 171.54012917 281.90506739 174.54296875 286.953125 C175.09581543 287.88036377 175.64866211 288.80760254 176.21826172 289.76293945 C177.25496688 291.50215922 178.28927947 293.24280815 179.32080078 294.98510742 C179.77825684 295.75185791 180.23571289 296.5186084 180.70703125 297.30859375 C181.1038208 297.97689209 181.50061035 298.64519043 181.90942383 299.33374023 C183.02346616 301.15974028 183.02346616 301.15974028 185 303 C207.77 303 230.54 303 254 303 C254 209.28 254 115.56 254 19 C250.99633486 17.99877829 249.02260407 17.87887989 245.88598633 17.88647461 C244.32470757 17.88658791 244.32470757 17.88658791 242.73188782 17.88670349 C241.60993515 17.89186478 240.48798248 17.89702606 239.33203125 17.90234375 C238.18208176 17.9037587 237.03213226 17.90517365 235.84733582 17.90663147 C232.16903092 17.91223571 228.49078655 17.92478896 224.8125 17.9375 C222.32096442 17.94251445 219.82942789 17.94707745 217.33789062 17.95117188 C211.22523971 17.96220653 205.11262418 17.97894882 199 18 C197.82610352 22.19955467 197.85989938 26.26965955 197.87060547 30.60107422 C197.86801098 31.91439932 197.86801098 31.91439932 197.86536407 33.25425625 C197.86098618 36.18775214 197.86396793 39.12119078 197.8671875 42.0546875 C197.86617085 44.14829018 197.86483081 46.24189272 197.8631897 48.335495 C197.86047213 54.00325151 197.86498762 59.67098095 197.87142944 65.33873367 C197.87499045 68.86554293 197.8766171 72.39234811 197.87768555 75.91915894 C197.89584426 124.28338078 198.35853016 172.64044504 199 221 C198.60731934 220.29733505 198.21463867 219.5946701 197.81005859 218.87071228 C195.99901884 215.63089427 194.18701484 212.3916165 192.375 209.15234375 C191.75753906 208.04741577 191.14007813 206.94248779 190.50390625 205.80407715 C186.71385459 199.03060654 182.88093148 192.28425265 179 185.5625 C173.92681927 176.72857781 169.08649511 167.78082947 164.28344727 158.79760742 C159.91178427 150.64033552 155.39941066 142.57330055 150.81787109 134.5324707 C147.01461601 127.84083487 143.32833508 121.09368102 139.6875 114.3125 C134.20479471 104.11235223 128.50444437 94.04970937 122.7355957 84.01000977 C119.06322746 77.61783727 115.42745986 71.20962829 111.875 64.75 C107.99567388 57.71221871 103.98623001 50.75410766 99.9375 43.8125 C99.38368652 42.8627832 98.82987305 41.91306641 98.25927734 40.93457031 C97.1314284 39.00742976 95.97995636 37.09395021 94.80712891 35.19384766 C93.42687493 32.75444175 92.37718356 30.53641281 91.34521484 27.95849609 C89.51535184 23.74272104 87.70023201 19.867314 84 17 C76.94788456 14.5191954 69.07207156 15.55532093 61.75 16 C59.75282349 16.06681039 57.75540508 16.12675816 55.7578125 16.1796875 C42.83400998 16.57230671 29.91118344 17.38518174 17 18 Z " fill="#FC961B" transform="translate(195,356)"/>
  <path d="M0 0 C50 0 50 0 59 1 C59.80676539 86.74962729 60.56671807 172.48143281 59 285 C39.53 285 20.06 285 0 285 C0 190.95 0 96.9 0 0 Z " fill="#022F49" transform="translate(516,374)"/>
  <path d="M0 0 C17.34574107 -0.62799812 33.44697497 4.78898314 46.50390625 16.32421875 C57.46583989 26.58289369 64.57850965 40.88420454 65.39453125 55.94921875 C65.75482283 75.31603126 60.75482479 90.91036616 47.19140625 105.19921875 C34.3114938 117.59269772 19.10795152 120.60965506 1.81420898 120.56787109 C-13.29284893 120.22038757 -28.92303349 115.08477901 -39.80859375 104.19921875 C-39.80859375 103.53921875 -39.80859375 102.87921875 -39.80859375 102.19921875 C-40.46859375 102.19921875 -41.12859375 102.19921875 -41.80859375 102.19921875 C-43.36795456 100.25152291 -44.78665546 98.32178402 -46.18359375 96.26171875 C-46.58843994 95.6699585 -46.99328613 95.07819824 -47.41040039 94.46850586 C-50.45456923 89.92657886 -52.95459598 85.35775141 -54.80859375 80.19921875 C-55.16308594 79.36261719 -55.51757812 78.52601563 -55.8828125 77.6640625 C-59.89095665 62.66311792 -57.56953347 44.43525166 -50.12109375 30.94921875 C-41.52987087 17.84760386 -30.2764177 9.01339099 -15.80859375 3.19921875 C-14.95007813 2.83828125 -14.0915625 2.47734375 -13.20703125 2.10546875 C-8.90499508 0.47994368 -4.53972821 0.32201132 0 0 Z " fill="#FC951B" transform="translate(550.80859375,232.80078125)"/>
  <path d="M0 0 C2.77656485 3.41127137 5.10122571 6.72476331 7.21484375 10.5859375 C7.81176025 11.66955566 8.40867676 12.75317383 9.02368164 13.86962891 C9.6552417 15.02640137 10.28680176 16.18317383 10.9375 17.375 C11.94615246 19.20919997 12.95665385 21.04237275 13.96733093 22.87545776 C14.65216671 24.11763454 15.33650083 25.360088 16.02033997 26.60281372 C19.15806276 32.30132363 22.35217933 37.96708914 25.5625 43.625 C33.71720098 58.01829048 41.81788089 72.44198617 49.83203125 86.9140625 C50.78940186 88.64197021 50.78940186 88.64197021 51.76611328 90.40478516 C53.03570627 92.69779593 54.30364105 94.99172569 55.56982422 97.28662109 C58.44906996 102.48752021 61.36304654 107.6546342 64.42578125 112.75 C64.94760986 113.62285645 65.46943848 114.49571289 66.00708008 115.39501953 C66.97182564 116.99761732 67.94875216 118.59297303 68.94018555 120.17919922 C69.36211182 120.88061035 69.78403809 121.58202148 70.21875 122.3046875 C70.7746582 123.2016333 70.7746582 123.2016333 71.34179688 124.11669922 C72.53845218 127.54066029 71.34980562 130.24125915 69.88354492 133.42163086 C69.18902222 134.68052124 69.18902222 134.68052124 68.48046875 135.96484375 C67.95880127 136.91858887 67.43713379 137.87233398 66.8996582 138.85498047 C66.05213989 140.38082764 66.05213989 140.38082764 65.1875 141.9375 C64.31387817 143.52908936 64.31387817 143.52908936 63.42260742 145.15283203 C62.21233198 147.35734998 60.99949341 149.56046259 59.78417969 151.76220703 C57.60865749 155.71017848 55.45574342 159.67016388 53.30395508 163.63110352 C48.84391296 171.83644209 44.3395225 180.01604401 39.78833008 188.17114258 C37.00312514 193.1696452 34.26411805 198.19175485 31.53881836 203.22314453 C27.0801039 211.45015534 22.54009916 219.60236218 17.73632812 227.63305664 C13.82401723 234.20545452 10.17695989 240.91815348 6.57788086 247.66650391 C5.92057983 248.88345947 5.92057983 248.88345947 5.25 250.125 C4.66992188 251.21167969 4.66992188 251.21167969 4.078125 252.3203125 C3 254 3 254 1 255 C0.8232967 235.56258332 0.6576894 216.12507928 0.5 196.6875 C0.49405146 195.95571218 0.48810292 195.22392437 0.48197412 194.46996117 C0.10003985 147.39622016 -0.09281836 100.32529133 -0.0625 53.25 C-0.06207577 52.57123165 -0.06165154 51.89246329 -0.06121445 51.1931262 C-0.05036374 34.1287366 -0.03036732 17.06436614 0 0 Z " fill="#8CC1EE" transform="translate(592,384)"/>
  <path d="M0 0 C6.19134152 4.09486746 9.62690615 9.47868522 13 16 C13.34289062 16.63679688 13.68578125 17.27359375 14.0390625 17.9296875 C18.19022451 26.96913375 16.66551189 38.69381978 14 48 C13.65001953 49.22976563 13.65001953 49.22976563 13.29296875 50.484375 C10.0444801 60.03700828 3.80616396 66.88892287 -5.125 71.5 C-16.95445658 77.01400144 -30.95791983 78.25161322 -43.5625 74.4375 C-53.72917839 70.36230908 -60.55407927 64.47619098 -66 55 C-66.65162109 53.948125 -66.65162109 53.948125 -67.31640625 52.875 C-72.0353189 43.66736557 -71.34675367 30.66204772 -69.33984375 20.734375 C-68.44029971 18.2577083 -67.41998119 16.21635046 -66 14 C-65.51402344 13.23945313 -65.02804687 12.47890625 -64.52734375 11.6953125 C-48.78795094 -10.40681358 -22.50745534 -13.28433283 0 0 Z " fill="#012F4A" transform="translate(582,259)"/>
  <path d="M0 0 C26.73 0 53.46 0 81 0 C81 0.33 81 0.66 81 1 C55.26 1.33 29.52 1.66 3 2 C3 104.96 3 207.92 3 314 C9.42850618 315.42855693 14.68246757 316.30131113 21.09985352 316.31884766 C21.95948196 316.32889328 22.81911041 316.3389389 23.70478821 316.34928894 C26.51282148 316.37988878 29.32076046 316.39709087 32.12890625 316.4140625 C34.08903298 316.43279286 36.04915181 316.45236764 38.00926208 316.4727478 C43.14327312 316.52387773 48.27731024 316.56360544 53.41143799 316.60089111 C58.66042431 316.64105129 63.90930392 316.6920886 69.15820312 316.7421875 C79.4387269 316.83871993 89.71931121 316.92319672 100 317 C100 317.33 100 317.66 100 318 C67.66 318 35.32 318 2 318 C0.04970832 314.09941663 -0.24941063 312.76093032 -0.24609566 308.60395432 C-0.25007775 307.50220391 -0.25405985 306.40045351 -0.25816262 305.26531672 C-0.24942409 303.45015713 -0.24942409 303.45015713 -0.24050903 301.59832764 C-0.24221788 300.3126745 -0.24392673 299.02702136 -0.24568737 297.70240903 C-0.25016521 294.13130729 -0.24215125 290.56032523 -0.23213124 286.98923874 C-0.22350533 283.139239 -0.22641629 279.28924618 -0.22793579 275.4392395 C-0.22898519 268.7679967 -0.22270289 262.09679297 -0.21146011 255.42556 C-0.19521547 245.78004753 -0.18999817 236.13455398 -0.18748413 226.48902932 C-0.1831054 210.84033175 -0.16979147 195.19165501 -0.15087891 179.54296875 C-0.13252471 164.34049585 -0.11836595 149.13802861 -0.10986328 133.93554688 C-0.10933783 132.99868116 -0.10881239 132.06181544 -0.10827102 131.09655985 C-0.10566097 126.39664405 -0.10313355 121.69672821 -0.10064721 116.99681234 C-0.07990917 77.99785639 -0.04303642 38.99893897 0 0 Z " fill="#EC8F28" transform="translate(499,358)"/>
  <path d="M0 0 C31.02 0 62.04 0 94 0 C94.495 1.98 94.495 1.98 95 4 C94.505 3.01 94.505 3.01 94 2 C90.20835009 1.97056876 86.41673021 1.9530581 82.625 1.9375 C81.56410156 1.92912109 80.50320313 1.92074219 79.41015625 1.91210938 C73.57180564 1.89420032 67.8861959 2.09714762 62.09155273 2.83227539 C58.99834918 3.08032381 56.06175187 2.44534573 53 2 C51.64195984 2.13142324 50.2873663 2.30149025 48.9375 2.5 C45.24083019 2.98350483 41.89903265 2.90287925 38.1875 2.5625 C26.15191341 1.73562764 14.06395717 2 2 2 C1.67 106.61 1.34 211.22 1 319 C0.67 319 0.34 319 0 319 C0 213.73 0 108.46 0 0 Z " fill="#FE8602" transform="translate(195,356)"/>
  <path d="M0 0 C30.69 0 61.38 0 93 0 C93 0.33 93 0.66 93 1 C62.97 1 32.94 1 2 1 C2.33 51.82 2.66 102.64 3 155 C0.1709277 152.1709277 -0.37611108 151.61855575 -1 148 C-0.67 148 -0.34 148 0 148 C0 99.16 0 50.32 0 0 Z " fill="#7ECAF6" transform="translate(374,356)"/>
  <path d="M0 0 C0.33 0 0.66 0 1 0 C1 33.99 1 67.98 1 103 C-25.4 103 -51.8 103 -79 103 C-79 102.67 -79 102.34 -79 102 C-65.85164544 101.07895239 -52.70896813 100.69731833 -39.53222656 100.44238281 C-36.10984425 100.37470027 -32.68778181 100.29692605 -29.265625 100.21875 C-27.05469985 100.17386675 -24.84376259 100.12957508 -22.6328125 100.0859375 C-21.12462448 100.05009048 -21.12462448 100.05009048 -19.58596802 100.01351929 C-18.62061127 99.9966507 -17.65525452 99.9797821 -16.66064453 99.96240234 C-15.41518356 99.93694839 -15.41518356 99.93694839 -14.14456177 99.91098022 C-9.41764788 100.044795 -4.70938736 100.57187388 0 101 C0 67.67 0 34.34 0 0 Z " fill="#FE8A06" transform="translate(283,573)"/>
  <path d="M0 0 C3.22762068 4.03452585 5.78111559 7.75873423 8.3125 12.1875 C8.8703418 13.13012695 8.8703418 13.13012695 9.43945312 14.09179688 C10.35848796 15.69197857 11.18737069 17.34324411 12 19 C11.67 19.66 11.34 20.32 11 21 C10.16121545 19.71186658 9.32913217 18.41936744 8.5 17.125 C8.0359375 16.40570313 7.571875 15.68640625 7.09375 14.9453125 C6 13 6 13 6 11 C5.01 11.33 4.02 11.66 3 12 C3.00523682 12.9887915 3.01047363 13.97758301 3.01586914 14.99633789 C3.1219536 37.02218633 2.90086176 58.99118053 2 81 C1.67 81 1.34 81 1 81 C0.67 54.27 0.34 27.54 0 0 Z " fill="#FCAA15" transform="translate(266,469)"/>
  <path d="M0 0 C3.97925864 3.4716539 6.11510981 7.47444344 8.5625 12.0625 C9.44110934 13.67795401 10.32137619 15.29250743 11.203125 16.90625 C11.65880859 17.7415625 12.11449219 18.576875 12.58398438 19.4375 C15.35963873 24.46047726 18.26404753 29.40917537 21.15649414 34.36547852 C22.01168133 35.83327962 22.86406088 37.30272079 23.71337891 38.77392578 C24.62425903 40.34990395 25.54411384 41.92071073 26.47021484 43.48779297 C26.93766113 44.29490723 27.40510742 45.10202148 27.88671875 45.93359375 C28.53000122 47.03078735 28.53000122 47.03078735 29.1862793 48.15014648 C29.58907104 49.06582397 29.58907104 49.06582397 30 50 C29.67 50.66 29.34 51.32 29 52 C27.046875 48.58203125 25.09375 45.1640625 23.140625 41.74609375 C22.78677734 41.1310498 22.43292969 40.51600586 22.06835938 39.88232422 C21.34672117 38.61088214 20.63997815 37.33088704 19.94726562 36.04345703 C18.19300763 32.82146984 17.1093668 31.0729112 14 29 C12.8125 25.875 12.8125 25.875 12 23 C10.02 22.67 8.04 22.34 6 22 C6.33 20.68 6.66 19.36 7 18 C7.66 18 8.32 18 9 18 C9 17.34 9 16.68 9 16 C8.34 16 7.68 16 7 16 C6.32880451 14.5437455 5.66318193 13.08492133 5 11.625 C4.62875 10.81289063 4.2575 10.00078125 3.875 9.1640625 C3 7 3 7 3 5 C2.01 4.67 1.02 4.34 0 4 C0 2.68 0 1.36 0 0 Z " fill="#F88C14" transform="translate(818,602)"/>
  <path d="M0 0 C2.87803389 3.43231609 5.17639452 6.86731155 7.3203125 10.796875 C7.93382568 11.91344482 8.54733887 13.03001465 9.17944336 14.18041992 C9.65654251 15.05589981 9.65654251 15.05589981 10.14328003 15.94906616 C11.79738834 18.98347487 13.46694257 22.00934865 15.13671875 25.03515625 C15.46638138 25.63310501 15.79604401 26.23105377 16.13569641 26.84712219 C20.26805522 34.32339506 24.60846392 41.67388452 29 49 C28.01 49.495 28.01 49.495 27 50 C26.34 48.35 25.68 46.7 25 45 C24.34 45 23.68 45 23 45 C22.61199219 44.03191406 22.22398437 43.06382812 21.82421875 42.06640625 C19.85346546 37.47336332 17.35071101 33.23545571 14.8125 28.9375 C13.83042803 27.25798855 12.84865984 25.57829943 11.8671875 23.8984375 C11.3834668 23.07311523 10.89974609 22.24779297 10.40136719 21.39746094 C8.39411675 17.9634541 6.41179534 14.51553181 4.4375 11.0625 C3.81746094 9.98097656 3.19742187 8.89945312 2.55859375 7.78515625 C1.30643006 5.54758054 0.1173113 3.30688651 -1 1 C-0.67 0.67 -0.34 0.34 0 0 Z " fill="#F48C19" transform="translate(329,428)"/>
  <path d="M0 0 C0.33 0 0.66 0 1 0 C1.33 20.79 1.66 41.58 2 63 C-0.8290723 60.1709277 -1.37611108 59.61855575 -2 56 C-1.67 56 -1.34 56 -1 56 C-0.67 37.52 -0.34 19.04 0 0 Z " fill="#6FD2FE" transform="translate(375,448)"/>
  <path d="M0 0 C19.47 0 38.94 0 59 0 C57 5 57 5 55 6 C55 4.68 55 3.36 55 2 C36.85 2 18.7 2 0 2 C0 1.34 0 0.68 0 0 Z " fill="#021853" transform="translate(769,374)"/>
  <path d="M0 0 C4.50194209 2.25097105 4.50194209 2.25097105 6.2890625 5.51953125 C6.67320312 6.21240234 7.05734375 6.90527344 7.453125 7.61914062 C7.83984375 8.34294922 8.2265625 9.06675781 8.625 9.8125 C9.01945312 10.52470703 9.41390625 11.23691406 9.8203125 11.97070312 C11.79262025 15.57216372 13.58740511 19.13435053 15 23 C11.54788182 19.9314505 9.51324821 16.62587844 7.34375 12.609375 C6.9003125 12.07828125 6.456875 11.5471875 6 11 C4.68 11 3.36 11 2 11 C1.34 7.37 0.68 3.74 0 0 Z " fill="#7FC8ED" transform="translate(284,534)"/>
  <path d="M0 0 C1.12737713 3.38213139 1.06292002 4.64771379 0 8 C-1.31129922 9.35500919 -2.64691687 10.68671343 -4 12 C-6.20155671 15.77409721 -7 17.5699051 -7 22 C-10 24.25 -10 24.25 -13 26 C-11.36036204 20.05384306 -8.37624538 14.96477922 -5.375 9.625 C-4.6015625 8.23474609 -4.6015625 8.23474609 -3.8125 6.81640625 C-2.54617189 4.54170575 -1.27524075 2.26971208 0 0 Z " fill="#0B254E" transform="translate(670,536)"/>
  <path d="M0 0 C3.24683526 3.8478296 5.82455791 7.83473843 8.3125 12.1875 C8.8703418 13.13012695 8.8703418 13.13012695 9.43945312 14.09179688 C10.35848796 15.69197857 11.18737069 17.34324411 12 19 C11.67 19.66 11.34 20.32 11 21 C10.16121545 19.71186658 9.32913217 18.41936744 8.5 17.125 C8.0359375 16.40570313 7.571875 15.68640625 7.09375 14.9453125 C6 13 6 13 6 11 C4.68 11.33 3.36 11.66 2 12 C1.34 8.04 0.68 4.08 0 0 Z " fill="#F0A018" transform="translate(266,469)"/>
  <path d="M0 0 C2.20644747 2.04498098 3.65854534 3.9332361 5.0078125 6.6171875 C5.35457031 7.30683594 5.70132813 7.99648438 6.05859375 8.70703125 C6.41050781 9.42246094 6.76242187 10.13789063 7.125 10.875 C7.48464844 11.58269531 7.84429688 12.29039062 8.21484375 13.01953125 C10.02484087 16.65986253 11.47192192 19.91939663 12 24 C9.44736912 21.725306 8.15855185 19.56797307 6.8125 16.4375 C6.46832031 15.65246094 6.12414062 14.86742187 5.76953125 14.05859375 C5 12 5 12 5 10 C4.01 9.67 3.02 9.34 2 9 C1.26953125 6.93359375 1.26953125 6.93359375 0.8125 4.4375 C0.65394531 3.61121094 0.49539063 2.78492188 0.33203125 1.93359375 C0.16767578 0.97646484 0.16767578 0.97646484 0 0 Z " fill="#F78B14" transform="translate(703,401)"/>
  <path d="M0 0 C0.66 0.99 1.32 1.98 2 3 C1.360625 3.886875 0.72125 4.77375 0.0625 5.6875 C-3.30836271 11.10130981 -3.24444893 16.59225532 -3.5625 22.8125 C-3.60568359 23.60076172 -3.64886719 24.38902344 -3.69335938 25.20117188 C-3.79878321 27.13394215 -3.89983094 29.06695026 -4 31 C-4.33 31 -4.66 31 -5 31 C-5.83758735 8.86836497 -5.83758735 8.86836497 -1 1 C-0.67 0.67 -0.34 0.34 0 0 Z " fill="#091C51" transform="translate(517,272)"/>
  <path d="M0 0 C4.05247548 1.35082516 4.14905916 3.29811832 6 7 C6.99 7.33 7.98 7.66 9 8 C9.12375 8.9075 9.2475 9.815 9.375 10.75 C9.8251528 13.91207158 9.8251528 13.91207158 11.125 16.1875 C12 18 12 18 11 21 C9.16327681 17.68936862 7.33119238 14.37619334 5.5 11.0625 C4.97535156 10.11697266 4.45070313 9.17144531 3.91015625 8.19726562 C3.16572266 6.84858398 3.16572266 6.84858398 2.40625 5.47265625 C1.94541016 4.64000244 1.48457031 3.80734863 1.00976562 2.94946289 C0 1 0 1 0 0 Z " fill="#83C8E8" transform="translate(292,362)"/>
  <path d="M0 0 C0.5662207 0.15847412 1.13244141 0.31694824 1.71582031 0.48022461 C4.0345345 1.00785848 6.17358397 1.204156 8.546875 1.31640625 C9.39121094 1.35830078 10.23554688 1.40019531 11.10546875 1.44335938 C12.41451172 1.50233398 12.41451172 1.50233398 13.75 1.5625 C14.63816406 1.60568359 15.52632812 1.64886719 16.44140625 1.69335938 C18.62745963 1.79913615 20.81362089 1.90122546 23 2 C23 2.33 23 2.66 23 3 C15.08 3.33 7.16 3.66 -1 4 C-0.67 2.68 -0.34 1.36 0 0 Z " fill="#FD9010" transform="translate(196,672)"/>
  <path d="M0 0 C8.58 0 17.16 0 26 0 C22.31038356 1.84480822 21.39267443 2.24259353 17.59375 2.125 C16.76746094 2.10953125 15.94117188 2.0940625 15.08984375 2.078125 C13.36328125 2.02604167 11.63671875 1.97395833 9.91015625 1.921875 C9.08386719 1.90640625 8.25757813 1.8909375 7.40625 1.875 C6.65666016 1.85179687 5.90707031 1.82859375 5.13476562 1.8046875 C2.69647842 2.02776959 1.10772173 2.78740358 -1 4 C-0.67 2.68 -0.34 1.36 0 0 Z " fill="#FA910E" transform="translate(197,357)"/>
  <path d="M0 0 C0 3.84723602 -1.29832817 6.59665634 -3 10 C-4.15667784 10.91535656 -5.34892918 11.78653288 -6.5625 12.625 C-7.20316406 13.07101562 -7.84382812 13.51703125 -8.50390625 13.9765625 C-8.99761719 14.31429688 -9.49132812 14.65203125 -10 15 C-10.66 14.67 -11.32 14.34 -12 14 C-11.38511719 13.32453125 -10.77023437 12.6490625 -10.13671875 11.953125 C-9.32847656 11.06109375 -8.52023437 10.1690625 -7.6875 9.25 C-6.88699219 8.36828125 -6.08648438 7.4865625 -5.26171875 6.578125 C-3.39083089 4.44550672 -1.65915714 2.29812057 0 0 Z " fill="#81C8F1" transform="translate(607,326)"/>
  <path d="M0 0 C0.66 0.33 1.32 0.66 2 1 C1.57692877 2.31722179 1.13602514 3.62872664 0.6875 4.9375 C0.44386719 5.66839844 0.20023438 6.39929688 -0.05078125 7.15234375 C-1 9 -1 9 -4 10 C-4.70211894 11.65204456 -5.36971413 13.31923769 -6 15 C-6.99 15.495 -6.99 15.495 -8 16 C-6.57250019 12.20950293 -4.83763458 8.72877544 -2.875 5.1875 C-2.33617187 4.21167969 -1.79734375 3.23585938 -1.2421875 2.23046875 C-0.83226562 1.49441406 -0.42234375 0.75835937 0 0 Z " fill="#F0A019" transform="translate(823,382)"/>
  <path d="M0 0 C1.18429132 3.55287397 0.99184231 5.41410857 0 9 C-2 10.25 -2 10.25 -4 11 C-4.33 11.66 -4.66 12.32 -5 13 C-5.66 12.67 -6.32 12.34 -7 12 C-6.02296079 10.1863523 -5.04330895 8.37411183 -4.0625 6.5625 C-3.51722656 5.55316406 -2.97195313 4.54382813 -2.41015625 3.50390625 C-1 1 -1 1 0 0 Z " fill="#F88C16" transform="translate(662,516)"/>
  <path d="M0 0 C1.875 0.125 1.875 0.125 4 1 C5.0625 3.625 5.0625 3.625 6 7 C6.94803777 9.3583029 7.97614137 11.67304857 9 14 C8.34 14 7.68 14 7 14 C5.2734375 11.4453125 5.2734375 11.4453125 3.375 8.125 C2.74335938 7.03445313 2.11171875 5.94390625 1.4609375 4.8203125 C0 2 0 2 0 0 Z " fill="#F98E16" transform="translate(288,536)"/>
  <path d="M0 0 C3.63 0 7.26 0 11 0 C11.33 0.66 11.66 1.32 12 2 C9.36 2.33 6.72 2.66 4 3 C4 3.66 4 4.32 4 5 C3.01 4.67 2.02 4.34 1 4 C0.67 2.68 0.34 1.36 0 0 Z " fill="#08244F" transform="translate(608,375)"/>
  <path d="M0 0 C0.99 0.33 1.98 0.66 3 1 C1.625 3 1.625 3 0 5 C-0.66 5 -1.32 5 -2 5 C-2 6.98 -2 8.96 -2 11 C-3.32 11.33 -4.64 11.66 -6 12 C-5.36934243 8.78147169 -4.21979305 6.49198931 -2.4375 3.75 C-1.98246094 3.04359375 -1.52742187 2.3371875 -1.05859375 1.609375 C-0.53458984 0.81273437 -0.53458984 0.81273437 0 0 Z " fill="#F98D13" transform="translate(730,405)"/>
  <path d="M0 0 C0.33 0.66 0.66 1.32 1 2 C-0.19614677 4.43659526 -1.43812986 6.73002411 -2.8125 9.0625 C-3.36647461 10.03799805 -3.36647461 10.03799805 -3.93164062 11.03320312 C-6.73305861 15.8665293 -6.73305861 15.8665293 -9 17 C-7.68925635 12.53817564 -5.92933989 9.00381243 -3.375 5.125 C-2.74335937 4.15820312 -2.11171875 3.19140625 -1.4609375 2.1953125 C-0.73777344 1.10863281 -0.73777344 1.10863281 0 0 Z " fill="#F98B0F" transform="translate(840,384)"/>
  <path d="M0 0 C2.61724095 2.36797991 4.32861729 4.89600354 6 8 C6 8.66 6 9.32 6 10 C6.66 10 7.32 10 8 10 C8.33 11.98 8.66 13.96 9 16 C4.49583156 12.32993682 2.23209799 7.25091904 0 2 C0 1.34 0 0.68 0 0 Z " fill="#F88C13" transform="translate(639,465)"/>
  <path d="M0 0 C0.66 0 1.32 0 2 0 C2.33 1.32 2.66 2.64 3 4 C2.01 4 1.02 4 0 4 C-0.268125 4.721875 -0.53625 5.44375 -0.8125 6.1875 C-1.98982498 8.97590126 -3.39145884 11.44095724 -5 14 C-5.33 13.34 -5.66 12.68 -6 12 C-4.78515625 9.1796875 -4.78515625 9.1796875 -3.0625 5.875 C-2.49660156 4.77929688 -1.93070313 3.68359375 -1.34765625 2.5546875 C-0.90292969 1.71164062 -0.45820312 0.86859375 0 0 Z " fill="#EAA218" transform="translate(716,563)"/>
  <path d="M0 0 C0.515625 0.309375 1.03125 0.61875 1.5625 0.9375 C4.66665423 2.29059287 7.65115007 2.61359424 11 3 C9 5 9 5 7.0546875 5.1953125 C5.03645833 5.13020833 3.01822917 5.06510417 1 5 C0.67 3.35 0.34 1.7 0 0 Z " fill="#FC8D0C" transform="translate(500,671)"/>
  <path d="M0 0 C0.66 0.33 1.32 0.66 2 1 C1.06915029 2.77433812 0.13005387 4.54435149 -0.8125 6.3125 C-1.33457031 7.29863281 -1.85664062 8.28476562 -2.39453125 9.30078125 C-3.7719876 11.61665068 -4.99530591 13.23611001 -7 15 C-5.45454854 9.52067211 -2.84456788 4.88570819 0 0 Z " fill="#FA8911" transform="translate(654,530)"/>
  <path d="M0 0 C0.33 0 0.66 0 1 0 C1.95261487 4.76307437 2.08333357 9.1666528 2 14 C-0.50037734 11.82575883 -1.43628586 10.26954202 -2 7 C-1.67 7 -1.34 7 -1 7 C-0.67 4.69 -0.34 2.38 0 0 Z " fill="#78CFF6" transform="translate(375,497)"/>
  <path d="M0 0 C3.48331435 3.01887244 4.79157144 5.56909529 6 10 C5.21625 9.360625 4.4325 8.72125 3.625 8.0625 C1.20460719 6.01857687 1.20460719 6.01857687 -1 5 C-0.67 3.35 -0.34 1.7 0 0 Z " fill="#F88E14" transform="translate(849,656)"/>
  <path d="M0 0 C0.4125 0.45375 0.825 0.9075 1.25 1.375 C3.06408095 3.05950374 4.75285627 3.99265971 7 5 C6.67 6.65 6.34 8.3 6 10 C2.51668565 6.98112756 1.20842856 4.43090471 0 0 Z " fill="#FD8C0F" transform="translate(737,631)"/>
  <path d="M0 0 C0.33 0.66 0.66 1.32 1 2 C-0.109375 4.53125 -0.109375 4.53125 -1.75 7.5 C-2.28109375 8.4796875 -2.8121875 9.459375 -3.359375 10.46875 C-5 13 -5 13 -8 15 C-6.62712658 11.30123909 -4.93644547 8.0485524 -2.875 4.6875 C-2.33617187 3.80449219 -1.79734375 2.92148437 -1.2421875 2.01171875 C-0.83226562 1.34785156 -0.42234375 0.68398438 0 0 Z " fill="#F1A514" transform="translate(694,603)"/>
  <path d="M0 0 C2.31242092 2.16323247 4.0156396 4.37647804 5.6875 7.0625 C6.12449219 7.75472656 6.56148438 8.44695313 7.01171875 9.16015625 C8 11 8 11 8 13 C7.34 13 6.68 13 6 13 C4.35 10.03 2.7 7.06 1 4 C0.34 4 -0.32 4 -1 4 C-0.67 2.68 -0.34 1.36 0 0 Z " fill="#7CCAF1" transform="translate(321,595)"/>
  <path d="M0 0 C3.67882073 3.28466137 5.75150101 6.66360908 8 11 C8 11.66 8 12.32 8 13 C7.34 13 6.68 13 6 13 C5.73445312 12.43410156 5.46890625 11.86820313 5.1953125 11.28515625 C4.84210937 10.55167969 4.48890625 9.81820312 4.125 9.0625 C3.77695312 8.33160156 3.42890625 7.60070312 3.0703125 6.84765625 C2.1315023 4.83667541 2.1315023 4.83667541 0 4 C0 2.68 0 1.36 0 0 Z " fill="#F68D18" transform="translate(810,588)"/>
  <path d="M0 0 C0.33 0.66 0.66 1.32 1 2 C-0.58759644 6.58747193 -2.68985663 10.53706093 -7 13 C-5.35821735 8.22390502 -2.73453298 4.20617096 0 0 Z " fill="#0A224F" transform="translate(750,405)"/>
  <path d="M0 0 C0.33 0.66 0.66 1.32 1 2 C0.0625 4.625 0.0625 4.625 -1 7 C-1.66 7 -2.32 7 -3 7 C-2.67 8.32 -2.34 9.64 -2 11 C-3.32 10.67 -4.64 10.34 -6 10 C-4.02 6.7 -2.04 3.4 0 0 Z " fill="#81C8F1" transform="translate(832,401)"/>
  <path d="M0 0 C0.6875 1.625 0.6875 1.625 1 4 C-0.4375 7.25 -0.4375 7.25 -2 10 C-2.66 10 -3.32 10 -4 10 C-4 8.35 -4 6.7 -4 5 C-3.01 4.67 -2.02 4.34 -1 4 C-0.26676204 1.98491642 -0.26676204 1.98491642 0 0 Z " fill="#F98D11" transform="translate(612,311)"/>
  <path d="M0 0 C2.84763523 2.84763523 3 5.03616548 3 9 C2.6937566 10.33981486 2.36548445 11.67511887 2 13 C-0.44038726 8.11922548 -1.46845421 5.47332932 0 0 Z " fill="#83C8F3" transform="translate(612,265)"/>
  <path d="M0 0 C0.66 0.33 1.32 0.66 2 1 C-0.97 4.3 -3.94 7.6 -7 11 C-7.66 10.67 -8.32 10.34 -9 10 C-6.03 6.7 -3.06 3.4 0 0 Z " fill="#FB8C0E" transform="translate(513,249)"/>
  <path d="M0 0 C0.99 0.33 1.98 0.66 3 1 C3.9140625 2.99609375 3.9140625 2.99609375 4.625 5.4375 C5.61831857 8.79509372 5.61831857 8.79509372 7 12 C4 11 4 11 2.83203125 9.2578125 C2.49558594 8.55398438 2.15914063 7.85015625 1.8125 7.125 C1.46832031 6.42632813 1.12414062 5.72765625 0.76953125 5.0078125 C0 3 0 3 0 0 Z " fill="#FB8C0F" transform="translate(364,664)"/>
  <path d="M0 0 C1.32 0.33 2.64 0.66 4 1 C2.02 3.97 0.04 6.94 -2 10 C-3 8 -3 8 -2.44140625 6.0546875 C-2.15136719 5.33539063 -1.86132812 4.61609375 -1.5625 3.875 C-1.27503906 3.15054687 -0.98757813 2.42609375 -0.69140625 1.6796875 C-0.46324219 1.12539063 -0.23507812 0.57109375 0 0 Z " fill="#F68E16" transform="translate(787,472)"/>
  <path d="M0 0 C3.29963329 1.09987776 3.61064772 1.45586748 5.25 4.3125 C5.60578125 4.90675781 5.9615625 5.50101563 6.328125 6.11328125 C7 8 7 8 6 12 C4.02 8.04 2.04 4.08 0 0 Z " fill="#F28E20" transform="translate(754,662)"/>
  <path d="M0 0 C0.33 0.66 0.66 1.32 1 2 C-0.55599625 6.50419967 -1.81168455 9.5447806 -6 12 C-4.68139111 7.38486888 -2.78644563 3.90102388 0 0 Z " fill="#7FCAF1" transform="translate(811,437)"/>
  <path d="M0 0 C2.475 0.495 2.475 0.495 5 1 C5.66 2.98 6.32 4.96 7 7 C6.566875 6.505 6.13375 6.01 5.6875 5.5 C4.00259517 3.66781808 4.00259517 3.66781808 1 4 C0.67 2.68 0.34 1.36 0 0 Z " fill="#FD8F10" transform="translate(696,394)"/>
  <path d="M0 0 C0.33 0.66 0.66 1.32 1 2 C0.0390625 3.9453125 0.0390625 3.9453125 -1.375 6.125 C-1.83648438 6.84945313 -2.29796875 7.57390625 -2.7734375 8.3203125 C-3.17820312 8.87460937 -3.58296875 9.42890625 -4 10 C-4.33 10 -4.66 10 -5 10 C-5.3125 7.8125 -5.3125 7.8125 -5 5 C-2.5 2.1875 -2.5 2.1875 0 0 Z " fill="#F4A117" transform="translate(744,412)"/>
  <path d="M0 0 C2.475 0.99 2.475 0.99 5 2 C5.33 4.64 5.66 7.28 6 10 C3.47650757 6.87567603 1.72743854 3.61939504 0 0 Z " fill="#12284D" transform="translate(737,599)"/>
  <path d="M0 0 C3.0916909 2.52956528 3.90931332 5.22454612 5 9 C4.34 8.67 3.68 8.34 3 8 C3 7.34 3 6.68 3 6 C2.01 6 1.02 6 0 6 C0 4.02 0 2.04 0 0 Z " fill="#ED9D18" transform="translate(752,626)"/>
  <path d="M0 0 C0.66 0 1.32 0 2 0 C0.18690997 3.77727089 -1.9073259 7.37269822 -4 11 C-4.33 10.34 -4.66 9.68 -5 9 C-4.00390625 6.8359375 -4.00390625 6.8359375 -2.5625 4.375 C-2.08941406 3.55773437 -1.61632812 2.74046875 -1.12890625 1.8984375 C-0.75636719 1.27195312 -0.38382813 0.64546875 0 0 Z " fill="#FA8A0E" transform="translate(630,574)"/>
  <path d="M0 0 C2.79872437 2.52788007 4.45773019 4.20411134 5 8 C3.0625 7.375 3.0625 7.375 1 6 C0.25 2.875 0.25 2.875 0 0 Z " fill="#F7A116" transform="translate(760,640)"/>
  <path d="M0 0 C2.475 0.99 2.475 0.99 5 2 C4.67 3.98 4.34 5.96 4 8 C1.84622436 5.37801226 0.59927826 3.35595828 0 0 Z " fill="#F98B16" transform="translate(345,632)"/>
  <path d="M0 0 C1 3 1 3 0.22265625 4.82421875 C-0.8515625 6.54947917 -1.92578125 8.27473958 -3 10 C-4.2077558 6.37673261 -3.54311128 5.35853631 -2 2 C-1.34 2 -0.68 2 0 2 C0 1.34 0 0.68 0 0 Z " fill="#F68D18" transform="translate(813,430)"/>
  <path d="M0 0 C2.1875 0.3125 2.1875 0.3125 4 1 C4 1.99 4 2.98 4 4 C1.69 3.67 -0.62 3.34 -3 3 C-1.75 1.4375 -1.75 1.4375 0 0 Z " fill="#FB8E11" transform="translate(856,671)"/>
  <path d="M0 0 C2.31 0 4.62 0 7 0 C7 0.99 7 1.98 7 3 C4.69 3 2.38 3 0 3 C0 2.01 0 1.02 0 0 Z " fill="#FD8B0C" transform="translate(664,672)"/>
  <path d="M0 0 C0.99 0.33 1.98 0.66 3 1 C4.6875 4.5625 4.6875 4.5625 6 8 C5.01 8.495 5.01 8.495 4 9 C0 2.25 0 2.25 0 0 Z " fill="#0F264D" transform="translate(293,513)"/>
  <path d="M0 0 C0.33 0 0.66 0 1 0 C1 1.65 1 3.3 1 5 C1.66 5.33 2.32 5.66 3 6 C2.34 7.65 1.68 9.3 1 11 C-0.98362069 8.08291076 -0.9876191 6.87619096 -0.625 3.25 C-0.41875 2.1775 -0.2125 1.105 0 0 Z " fill="#E6931D" transform="translate(597,297)"/>
</svg>
